<?xml version="1.0" encoding="utf-8"?>
<!-- Generator: Adobe Illustrator 19.0.0, SVG Export Plug-In . SVG Version: 6.00 Build 0)  -->
<svg version="1.1" id="Capa_1" xmlns="http://www.w3.org/2000/svg" xmlns:xlink="http://www.w3.org/1999/xlink" x="0px" y="0px"
	 viewBox="-104 196 402 402" style="enable-background:new -104 196 402 402;" xml:space="preserve">
<style type="text/css">
	.st0{fill:#008000;}
</style>
<g>
	<path class="st0" d="M253.5,386.7c-5.3-5.3-11.8-8-19.4-8h-9.1v-54.8c0-35-12.6-65.1-37.7-90.2C162.1,208.6,132,196,97,196
		c-35,0-65.1,12.6-90.2,37.7c-25.1,25.1-37.7,55.2-37.7,90.2v54.8H-40c-7.6,0-14.1,2.7-19.4,8c-5.3,5.3-8,11.8-8,19.4v164.5
		c0,7.6,2.7,14.1,8,19.4c5.3,5.3,11.8,8,19.4,8H234c7.6,0,14.1-2.7,19.4-8c5.3-5.3,8-11.8,8-19.4V406.1
		C261.5,398.5,258.8,392.1,253.5,386.7z M170.1,378.7H23.9v-54.8c0-20.2,7.1-37.4,21.4-51.7C59.6,258,76.8,250.8,97,250.8
		c20.2,0,37.4,7.1,51.7,21.4c14.3,14.3,21.4,31.5,21.4,51.7V378.7z"/>
</g>
</svg>
